<?xml version="1.0" standalone="no"?>
<!DOCTYPE svg PUBLIC "-//W3C//DTD SVG 20010904//EN"
 "http://www.w3.org/TR/2001/REC-SVG-20010904/DTD/svg10.dtd">
<svg version="1.0" xmlns="http://www.w3.org/2000/svg"
 width="500.000000pt" height="500.000000pt" viewBox="0 0 500.000000 500.000000"
 preserveAspectRatio="xMidYMid meet">

<g transform="translate(0.000000,500.000000) scale(0.100000,-0.100000)"
fill="#000000" stroke="none">
<path d="M3054 3692 c-9 -14 -14 -15 -26 -5 -13 11 -17 0 -31 -80 -20 -112
-20 -107 -3 -107 9 0 17 16 21 43 11 66 22 75 17 13 -4 -47 -2 -55 10 -51 11
5 17 31 22 102 4 52 6 97 4 99 -2 1 -9 -5 -14 -14z"/>
<path d="M3970 3695 c-9 -11 -16 -12 -26 -4 -10 8 -14 2 -20 -28 -3 -21 -15
-76 -24 -123 -15 -71 -16 -87 -5 -99 11 -11 15 -5 24 40 31 150 31 149 26 59
-2 -47 -9 -209 -16 -360 -6 -151 -16 -279 -20 -285 -14 -14 -11 -21 14 -32
l23 -11 12 322 c7 176 17 368 23 425 5 57 8 105 6 108 -2 2 -10 -3 -17 -12z"/>
<path d="M2710 3472 c0 -5 20 -9 45 -11 26 -1 45 2 45 9 0 5 -20 10 -45 10
-25 0 -45 -4 -45 -8z"/>
<path d="M3620 3474 c0 -5 11 -11 25 -12 14 -1 69 -11 122 -22 114 -24 103
-23 103 -7 0 8 -21 18 -52 25 -77 17 -198 27 -198 16z"/>
<path d="M2092 3439 c-356 -46 -636 -295 -712 -635 -32 -141 -30 -316 5 -436
l14 -47 -144 -3 c-179 -4 -170 -13 -162 174 6 135 31 251 77 356 16 36 17 42
4 42 -18 0 -63 -97 -87 -185 -35 -129 -42 -360 -11 -395 7 -8 16 -27 19 -42
l7 -28 95 0 c60 0 92 -4 88 -10 -3 -5 -44 -10 -91 -10 -49 0 -84 -4 -84 -10 0
-6 63 -10 170 -10 94 0 170 -3 170 -7 0 -5 -75 -7 -166 -5 l-166 3 7 -23 c3
-13 28 -67 54 -120 26 -54 42 -93 34 -87 -29 25 -23 -2 12 -55 52 -78 167
-189 261 -252 155 -103 301 -156 529 -189 154 -24 485 -23 673 0 117 14 155
15 202 6 31 -6 129 -16 216 -21 241 -15 535 8 792 61 l102 22 0 351 c0 193 3
361 6 372 5 20 17 23 107 33 146 17 147 17 147 47 0 15 -4 23 -10 19 -14 -8
-609 -7 -759 2 -97 5 -113 4 -105 -8 5 -8 7 -21 6 -30 -3 -17 6 -18 253 -42
31 -3 37 -81 32 -407 l-4 -285 -44 -17 c-62 -23 -170 -43 -178 -32 -3 5 -64 9
-136 10 -71 0 -154 6 -183 13 l-54 13 4 348 c2 192 5 351 8 354 3 3 56 11 118
18 62 6 116 15 121 18 4 3 12 16 16 29 6 21 5 23 -11 17 -23 -9 -605 -8 -764
1 -103 5 -114 5 -102 -9 7 -9 10 -22 6 -31 -4 -12 8 -17 73 -23 109 -11 207
-11 211 1 1 6 -28 13 -65 18 -37 4 -72 9 -78 12 -5 3 12 3 39 0 27 -3 146 -6
265 -6 119 -1 205 -4 191 -6 -14 -3 -35 -15 -47 -27 -18 -20 -32 -23 -100 -24
-87 -1 -74 13 16 17 31 1 58 5 61 8 3 3 -33 2 -80 -2 -47 -4 -104 -8 -126 -10
-86 -6 -79 18 -76 -280 2 -146 0 -265 -5 -265 -4 0 -17 7 -27 15 -10 8 -23 12
-27 9 -5 -3 -9 2 -9 10 0 9 -6 13 -14 10 -19 -7 -127 100 -187 186 -58 82
-118 190 -95 171 9 -8 18 -12 20 -10 2 2 -9 38 -25 79 -129 330 -105 645 66
885 51 72 166 181 220 210 l37 19 53 -28 c29 -15 81 -52 114 -82 34 -31 66
-52 72 -49 15 10 -51 76 -134 133 l-69 47 42 17 c43 18 127 41 192 52 l37 7
-6 -248 c-3 -136 -10 -250 -15 -251 -4 -2 -6 -8 -2 -13 3 -5 0 -9 -5 -9 -20 0
-11 -17 14 -28 14 -7 28 -12 29 -12 2 0 5 93 6 208 1 114 5 241 8 282 l7 75
45 3 c66 5 263 -17 347 -38 147 -38 261 -96 359 -184 56 -50 79 -55 51 -12
-41 62 -193 155 -327 201 -167 57 -457 77 -603 41 -304 -74 -512 -261 -606
-543 -49 -146 -61 -331 -30 -471 5 -24 7 -48 4 -53 -4 -5 -1 -9 4 -9 6 0 11
-7 11 -16 0 -13 -19 -15 -144 -12 -79 2 -142 0 -139 -4 2 -5 0 -8 -5 -8 -14 0
-20 121 -11 227 9 110 31 201 70 296 28 68 28 69 6 55 -25 -17 -59 -95 -89
-207 -25 -93 -32 -356 -10 -370 7 -4 16 -21 21 -37 l7 -29 98 -3 c120 -3 120
-22 0 -22 -49 0 -84 -4 -84 -10 0 -6 64 -11 168 -12 l167 -2 -163 -3 -163 -4
7 -22 c18 -59 55 -139 89 -193 l37 -59 -31 29 c-40 38 -40 22 0 -38 78 -117
212 -233 366 -315 82 -43 95 -61 47 -61 -14 0 -23 3 -21 8 3 4 -56 7 -131 8
-207 1 -350 44 -520 154 -52 33 -98 57 -104 53 -7 -4 -9 0 -5 10 4 11 2 14 -8
11 -37 -14 -205 182 -279 325 -14 27 -14 30 -1 25 20 -8 20 -6 -15 80 -60 152
-74 227 -74 396 -1 172 10 225 70 358 118 259 349 420 651 453 93 10 128 10
248 -5 221 -28 225 -29 225 -18 0 13 -143 42 -258 53 -113 10 -154 9 -240 -2z
m1481 -1116 c-7 -2 -21 -2 -30 0 -10 3 -4 5 12 5 17 0 24 -2 18 -5z m449 -10
c-22 -3 -36 -12 -43 -27 -10 -21 -18 -22 -97 -24 l-87 -1 50 14 c46 13 47 14
10 9 -131 -17 -158 -17 -151 -3 4 8 0 5 -8 -5 -16 -20 -20 -16 -17 16 2 13 -8
18 -46 21 -26 2 58 3 187 4 129 0 220 -2 202 -4z m-2749 -10 c-7 -2 -19 -2
-25 0 -7 3 -2 5 12 5 14 0 19 -2 13 -5z m914 1 c-3 -3 -12 -4 -19 -1 -8 3 -5
6 6 6 11 1 17 -2 13 -5z m-822 -21 c-120 -7 -265 -7 -265 0 0 4 71 6 158 5 86
-1 135 -3 107 -5z m965 0 c0 -5 -48 -7 -107 -5 -193 4 -211 8 -50 10 86 1 157
-1 157 -5z m-1173 -19 c-3 -3 -12 -4 -19 -1 -8 3 -5 6 6 6 11 1 17 -2 13 -5z
m1786 -21 c-7 -2 -21 -2 -30 0 -10 3 -4 5 12 5 17 0 24 -2 18 -5z m60 0 c-7
-2 -19 -2 -25 0 -7 3 -2 5 12 5 14 0 19 -2 13 -5z m860 0 c-7 -2 -21 -2 -30 0
-10 3 -4 5 12 5 17 0 24 -2 18 -5z m50 0 c-7 -2 -19 -2 -25 0 -7 3 -2 5 12 5
14 0 19 -2 13 -5z m54 -15 c-3 -8 -6 -5 -6 6 -1 11 2 17 5 13 3 -3 4 -12 1
-19z m-920 -130 c-3 -8 -6 -5 -6 6 -1 11 2 17 5 13 3 -3 4 -12 1 -19z m-1796
-175 c13 -16 12 -17 -3 -4 -17 13 -22 21 -14 21 2 0 10 -8 17 -17z m34 -43
c10 -11 16 -20 13 -20 -3 0 -13 9 -23 20 -10 11 -16 20 -13 20 3 0 13 -9 23
-20z"/>
<path d="M3913 2283 c9 -2 23 -2 30 0 6 3 -1 5 -18 5 -16 0 -22 -2 -12 -5z"/>
</g>
</svg>
